<svg width="32" height="32" viewBox="0 0 32 32" fill="none" xmlns="http://www.w3.org/2000/svg">
<g id="Frame">
<path id="Vector" d="M3.66561 5.99998C3.5331 5.9981 3.40153 6.02259 3.27857 6.072C3.1556 6.12141 3.04368 6.19477 2.94931 6.28782C2.85494 6.38086 2.78 6.49174 2.72885 6.61399C2.67771 6.73625 2.65137 6.86745 2.65137 6.99998C2.65137 7.1325 2.67771 7.26371 2.72885 7.38596C2.78 7.50822 2.85494 7.61909 2.94931 7.71214C3.04368 7.80518 3.1556 7.87854 3.27857 7.92796C3.40153 7.97737 3.5331 8.00185 3.66561 7.99998H28.3323C28.4648 8.00185 28.5964 7.97737 28.7193 7.92796C28.8423 7.87854 28.9542 7.80518 29.0486 7.71214C29.1429 7.61909 29.2179 7.50822 29.269 7.38596C29.3202 7.26371 29.3465 7.1325 29.3465 6.99998C29.3465 6.86745 29.3202 6.73625 29.269 6.61399C29.2179 6.49174 29.1429 6.38086 29.0486 6.28782C28.9542 6.19477 28.8423 6.12141 28.7193 6.072C28.5964 6.02259 28.4648 5.9981 28.3323 5.99998H3.66561ZM3.66561 15C3.5331 14.9981 3.40153 15.0226 3.27857 15.072C3.1556 15.1214 3.04368 15.1948 2.94931 15.2878C2.85494 15.3809 2.78 15.4917 2.72885 15.614C2.67771 15.7362 2.65137 15.8675 2.65137 16C2.65137 16.1325 2.67771 16.2637 2.72885 16.386C2.78 16.5082 2.85494 16.6191 2.94931 16.7121C3.04368 16.8052 3.1556 16.8785 3.27857 16.928C3.40153 16.9774 3.5331 17.0019 3.66561 17H28.3323C28.4648 17.0019 28.5964 16.9774 28.7193 16.928C28.8423 16.8785 28.9542 16.8052 29.0486 16.7121C29.1429 16.6191 29.2179 16.5082 29.269 16.386C29.3202 16.2637 29.3465 16.1325 29.3465 16C29.3465 15.8675 29.3202 15.7362 29.269 15.614C29.2179 15.4917 29.1429 15.3809 29.0486 15.2878C28.9542 15.1948 28.8423 15.1214 28.7193 15.072C28.5964 15.0226 28.4648 14.9981 28.3323 15H3.66561ZM3.66561 24C3.5331 23.9981 3.40153 24.0226 3.27857 24.072C3.1556 24.1214 3.04368 24.1948 2.94931 24.2878C2.85494 24.3809 2.78 24.4917 2.72885 24.614C2.67771 24.7362 2.65137 24.8675 2.65137 25C2.65137 25.1325 2.67771 25.2637 2.72885 25.386C2.78 25.5082 2.85494 25.6191 2.94931 25.7121C3.04368 25.8052 3.1556 25.8785 3.27857 25.928C3.40153 25.9774 3.5331 26.0019 3.66561 26H28.3323C28.4648 26.0019 28.5964 25.9774 28.7193 25.928C28.8423 25.8785 28.9542 25.8052 29.0486 25.7121C29.1429 25.6191 29.2179 25.5082 29.269 25.386C29.3202 25.2637 29.3465 25.1325 29.3465 25C29.3465 24.8675 29.3202 24.7362 29.269 24.614C29.2179 24.4917 29.1429 24.3809 29.0486 24.2878C28.9542 24.1948 28.8423 24.1214 28.7193 24.072C28.5964 24.0226 28.4648 23.9981 28.3323 24H3.66561Z" fill="black"/>
</g>
</svg>
