<svg width="16" height="16" viewBox="0 0 16 16" fill="none" xmlns="http://www.w3.org/2000/svg">
<path id="Vector" d="M5.6 0C2.51668 0 0 2.51668 0 5.6C0 8.68332 2.51668 11.2 5.6 11.2C6.9984 11.2 8.27601 10.6784 9.25938 9.825L9.6 10.1656V11.2L14.4 16L16 14.4L11.2 9.6H10.1656L9.825 9.25938C10.6784 8.27601 11.2 6.9984 11.2 5.6C11.2 2.51668 8.68332 0 5.6 0ZM5.6 1.6C7.81861 1.6 9.6 3.38139 9.6 5.6C9.6 7.81861 7.81861 9.6 5.6 9.6C3.38139 9.6 1.6 7.81861 1.6 5.6C1.6 3.38139 3.38139 1.6 5.6 1.6Z" fill="#242424"/>
</svg>
